<svg xmlns="http://www.w3.org/2000/svg" width="28.049" height="16.6" viewBox="0 0 28.049 16.6"><defs><style>.a{fill:#aeaeae;fill-rule:evenodd;}</style></defs><path class="a" d="M20,.165c2.432.564,3.362,1.986,4.528,3.944H20ZM5.784,4.273a.721.721,0,0,1,.822.767.822.822,0,0,1-.819.822H.821a.822.822,0,1,0,0,1.644h7.4a.822.822,0,1,1,0,1.644H.821a.822.822,0,1,0,0,1.644H2.629v2.465a.822.822,0,0,0,.822.822H5.1a3.151,3.151,0,0,0,6.174,0h8.344a3.151,3.151,0,0,0,6.174,0h1.433a.822.822,0,0,0,.822-.822V8.327c0-2.411-2.543-2.571-2.546-2.575H19.174a.822.822,0,0,1-.822-.822V0H3.451a.822.822,0,0,0-.822.822V2.63H1.643a.822.822,0,1,0,0,1.644Zm17.989,8.111A1.507,1.507,0,1,1,21.2,13.45,1.507,1.507,0,0,1,23.773,12.384Zm-14.518,0A1.507,1.507,0,1,1,6.683,13.45,1.507,1.507,0,0,1,9.255,12.384Zm0,0" transform="translate(0 0)"/></svg>