<svg xmlns="http://www.w3.org/2000/svg" width="100.199" height="15.711" viewBox="0 0 100.199 15.711"><defs><style>.a{fill:#f5db27;}</style></defs><g transform="translate(-16 -290)"><path class="a" d="M8.768.546l-2,4.062-4.483.654a.982.982,0,0,0-.543,1.675L4.982,10.1l-.767,4.464A.981.981,0,0,0,5.639,15.6l4.01-2.108,4.01,2.108a.982.982,0,0,0,1.424-1.034L14.316,10.1l3.243-3.16a.982.982,0,0,0-.543-1.675l-4.483-.654-2-4.062a.983.983,0,0,0-1.761,0Z" transform="translate(14.559 290.001)"/><path class="a" d="M8.768.546l-2,4.062-4.483.654a.982.982,0,0,0-.543,1.675L4.982,10.1l-.767,4.464A.981.981,0,0,0,5.639,15.6l4.01-2.108,4.01,2.108a.982.982,0,0,0,1.424-1.034L14.316,10.1l3.243-3.16a.982.982,0,0,0-.543-1.675l-4.483-.654-2-4.062a.983.983,0,0,0-1.761,0Z" transform="translate(35.505 290.001)"/><path class="a" d="M8.768.546l-2,4.062-4.483.654a.982.982,0,0,0-.543,1.675L4.982,10.1l-.767,4.464A.981.981,0,0,0,5.639,15.6l4.01-2.108,4.01,2.108a.982.982,0,0,0,1.424-1.034L14.316,10.1l3.243-3.16a.982.982,0,0,0-.543-1.675l-4.483-.654-2-4.062a.983.983,0,0,0-1.761,0Z" transform="translate(56.45 290.001)"/><path class="a" d="M8.768.546l-2,4.062-4.483.654a.982.982,0,0,0-.543,1.675L4.982,10.1l-.767,4.464A.981.981,0,0,0,5.639,15.6l4.01-2.108,4.01,2.108a.982.982,0,0,0,1.424-1.034L14.316,10.1l3.243-3.16a.982.982,0,0,0-.543-1.675l-4.483-.654-2-4.062a.983.983,0,0,0-1.761,0Z" transform="translate(77.396 290.001)"/><path class="a" d="M8.768.546l-2,4.062-4.483.654a.982.982,0,0,0-.543,1.675L4.982,10.1l-.767,4.464A.981.981,0,0,0,5.639,15.6l4.01-2.108,4.01,2.108a.982.982,0,0,0,1.424-1.034L14.316,10.1l3.243-3.16a.982.982,0,0,0-.543-1.675l-4.483-.654-2-4.062a.983.983,0,0,0-1.761,0Z" transform="translate(98.342 290.001)"/></g></svg>