<svg xmlns="http://www.w3.org/2000/svg" width="17.075" height="17.073" viewBox="0 0 17.075 17.073"><defs><style>.a{fill:#0dbf00;}</style></defs><path class="a" d="M17.948,5.874a8.538,8.538,0,1,0,0,12.074A8.541,8.541,0,0,0,17.948,5.874ZM5.081,12.232a.328.328,0,1,1,.259-.259A.328.328,0,0,1,5.081,12.232Zm1.075,3.374a.327.327,0,1,1,.094-.349A.328.328,0,0,1,6.156,15.605Zm.094-7.039a.326.326,0,1,1-.094-.349A.328.328,0,0,1,6.251,8.567Zm2.524,9.419a.326.326,0,1,1-.094-.349A.328.328,0,0,1,8.775,17.986Zm-.094-11.8a.327.327,0,1,1,.094-.349A.328.328,0,0,1,8.681,6.186Zm1.453,3.131a.329.329,0,1,1,.562-.341l1.383,2.557a1.33,1.33,0,0,1,.16.624v5.007a.328.328,0,0,1-.657,0V12.158a.675.675,0,0,0-.078-.312Zm1.843,9.809a.328.328,0,1,1,.259-.259A.328.328,0,0,1,11.976,19.127Zm0-13.79a.328.328,0,1,1,.259-.259A.328.328,0,0,1,11.976,5.337Zm3.6,12.793a.327.327,0,1,1,.094-.349A.328.328,0,0,1,15.575,18.129ZM15.67,6.043a.326.326,0,1,1-.094-.349A.328.328,0,0,1,15.67,6.043Zm2.524,9.419a.326.326,0,1,1-.094-.349A.328.328,0,0,1,18.194,15.462ZM18.1,8.71a.327.327,0,1,1,.094-.349A.328.328,0,0,1,18.1,8.71Zm.772,3.521a.328.328,0,1,1,.259-.259A.328.328,0,0,1,18.871,12.232Z" transform="translate(-3.372 -3.375)"/></svg>